<?xml version="1.0" encoding="UTF-8" standalone="no"?>
<!-- Created with Inkscape (http://www.inkscape.org/) -->
<svg
   xmlns:dc="http://purl.org/dc/elements/1.1/"
   xmlns:cc="http://web.resource.org/cc/"
   xmlns:rdf="http://www.w3.org/1999/02/22-rdf-syntax-ns#"
   xmlns:svg="http://www.w3.org/2000/svg"
   xmlns="http://www.w3.org/2000/svg"
   xmlns:sodipodi="http://inkscape.sourceforge.net/DTD/sodipodi-0.dtd"
   xmlns:inkscape="http://www.inkscape.org/namespaces/inkscape"
   width="32px"
   height="32px"
   id="svg2220"
   sodipodi:version="0.32"
   inkscape:version="0.43"
   sodipodi:docbase="/usr/local/google/ycoppel/ycoppel-source2/google3/experimental/users/leeca/depan/DepanApp/icons"
   sodipodi:docname="relpicker.svg">
  <defs
     id="defs2222" />
  <sodipodi:namedview
     id="base"
     pagecolor="#ffffff"
     bordercolor="#666666"
     borderopacity="1.0"
     inkscape:pageopacity="0.0"
     inkscape:pageshadow="2"
     inkscape:zoom="11.197802"
     inkscape:cx="16"
     inkscape:cy="14.962541"
     inkscape:current-layer="layer1"
     showgrid="true"
     inkscape:grid-bbox="true"
     inkscape:document-units="px"
     showguides="true"
     inkscape:guide-bbox="true"
     inkscape:window-width="789"
     inkscape:window-height="540"
     inkscape:window-x="904"
     inkscape:window-y="13" />
  <metadata
     id="metadata2225">
    <rdf:RDF>
      <cc:Work
         rdf:about="">
        <dc:format>image/svg+xml</dc:format>
        <dc:type
           rdf:resource="http://purl.org/dc/dcmitype/StillImage" />
      </cc:Work>
    </rdf:RDF>
  </metadata>
  <g
     id="layer1"
     inkscape:label="Layer 1"
     inkscape:groupmode="layer">
    <path
       style="fill:none;fill-opacity:0.75;fill-rule:evenodd;stroke:#ff00ed;stroke-width:1px;stroke-linecap:butt;stroke-linejoin:miter;stroke-opacity:1"
       d="M 18.841118,5.5207015 C 18.841118,5.5207015 18.694978,12.776868 16.472102,16.797862 C 14.226182,20.860542 8.463103,23.931704 8.463103,23.931704"
       id="path2237"
       sodipodi:nodetypes="csc" />
    <path
       style="fill:none;fill-opacity:0.75;fill-rule:evenodd;stroke:#000000;stroke-width:1px;stroke-linecap:butt;stroke-linejoin:miter;stroke-opacity:1"
       d="M 8.3925417,23.750736 C 8.3925417,23.750736 8.5096291,16.494043 10.716389,12.464181 C 12.946025,8.3925417 18.696762,5.2983312 18.696762,5.2983312"
       id="path2233"
       sodipodi:nodetypes="csc" />
    <path
       style="fill:none;fill-opacity:0.75;fill-rule:evenodd;stroke:#ff00ed;stroke-width:1;stroke-linecap:butt;stroke-linejoin:miter;stroke-opacity:1;stroke-miterlimit:4;stroke-dasharray:none;stroke-dashoffset:0"
       d="M 19,5.5534838 C 19,5.5534838 23.362325,8.9998393 24.839058,13.446516 C 26.468702,18.35363 26,25 26,25"
       id="path2235"
       sodipodi:nodetypes="csc" />
    <path
       sodipodi:type="arc"
       style="fill:#ff0000;fill-opacity:1"
       id="path2202"
       sodipodi:cx="9.4133587"
       sodipodi:cy="13.836195"
       sodipodi:rx="10.562407"
       sodipodi:ry="8.4410868"
       d="M 19.975765 13.836195 A 10.562407 8.4410868 0 1 1  -1.1490479,13.836195 A 10.562407 8.4410868 0 1 1  19.975765 13.836195 z"
       transform="matrix(0.337272,0,0,0.414639,5.262734,17.76297)" />
    <path
       sodipodi:type="arc"
       style="fill:#0000ff;fill-opacity:1"
       id="path2229"
       sodipodi:cx="9.4133587"
       sodipodi:cy="13.836195"
       sodipodi:rx="10.562407"
       sodipodi:ry="8.4410868"
       d="M 19.975765 13.836195 A 10.562407 8.4410868 0 1 1  -1.1490479,13.836195 A 10.562407 8.4410868 0 1 1  19.975765 13.836195 z"
       transform="matrix(0.337272,0,0,0.414639,15.38754,-0.237022)" />
    <path
       sodipodi:type="arc"
       style="fill:#00ff00;fill-opacity:1"
       id="path2231"
       sodipodi:cx="9.4133587"
       sodipodi:cy="13.836195"
       sodipodi:rx="10.562407"
       sodipodi:ry="8.4410868"
       d="M 19.975765 13.836195 A 10.562407 8.4410868 0 1 1  -1.1490479,13.836195 A 10.562407 8.4410868 0 1 1  19.975765 13.836195 z"
       transform="matrix(0.337272,0,0,0.414639,22.81238,18.76298)" />
  </g>
</svg>
