<?xml version="1.0" encoding="UTF-8" standalone="no"?>
<!-- Created with Inkscape (http://www.inkscape.org/) -->
<svg
   xmlns:dc="http://purl.org/dc/elements/1.1/"
   xmlns:cc="http://web.resource.org/cc/"
   xmlns:rdf="http://www.w3.org/1999/02/22-rdf-syntax-ns#"
   xmlns:svg="http://www.w3.org/2000/svg"
   xmlns="http://www.w3.org/2000/svg"
   xmlns:sodipodi="http://inkscape.sourceforge.net/DTD/sodipodi-0.dtd"
   xmlns:inkscape="http://www.inkscape.org/namespaces/inkscape"
   width="32px"
   height="32px"
   id="svg5247"
   sodipodi:version="0.32"
   inkscape:version="0.43"
   sodipodi:docbase="/usr/local/google/ycoppel/ycoppel-source2/google3/experimental/users/leeca/depan/DepanApp/icons"
   sodipodi:docname="sublayout.svg">
  <defs
     id="defs5249">
    <marker
       inkscape:stockid="Arrow2Lend"
       orient="auto"
       refY="0.0"
       refX="0.0"
       id="Arrow2Lend"
       style="overflow:visible;">
      <path
         id="path5168"
         style="font-size:12.0;fill-rule:evenodd;stroke-width:0.62500000;stroke-linejoin:round;"
         d="M 8.7185878,4.0337352 L -2.2072895,0.016013256 L 8.7185884,-4.0017078 C 6.9730900,-1.6296469 6.9831476,1.6157441 8.7185878,4.0337352 z "
         transform="scale(1.1) rotate(180) translate(-5,0)" />
    </marker>
  </defs>
  <sodipodi:namedview
     id="base"
     pagecolor="#ffffff"
     bordercolor="#666666"
     borderopacity="1.0"
     inkscape:pageopacity="0.0"
     inkscape:pageshadow="2"
     inkscape:zoom="11.197802"
     inkscape:cx="16"
     inkscape:cy="16"
     inkscape:current-layer="layer1"
     showgrid="true"
     inkscape:grid-bbox="true"
     inkscape:document-units="px"
     inkscape:window-width="789"
     inkscape:window-height="540"
     inkscape:window-x="834"
     inkscape:window-y="419" />
  <metadata
     id="metadata5252">
    <rdf:RDF>
      <cc:Work
         rdf:about="">
        <dc:format>image/svg+xml</dc:format>
        <dc:type
           rdf:resource="http://purl.org/dc/dcmitype/StillImage" />
      </cc:Work>
    </rdf:RDF>
  </metadata>
  <g
     id="layer1"
     inkscape:label="Layer 1"
     inkscape:groupmode="layer">
    <path
       style="fill:none;fill-opacity:0.75;fill-rule:evenodd;stroke:#000000;stroke-width:0.26071042px;stroke-linecap:butt;stroke-linejoin:miter;marker-end:url(#Arrow2Lend);stroke-opacity:1"
       d="M 16.887989,6.1517278 C 16.719563,6.1400114 14.025269,10.391751 14.025269,10.391751"
       id="path5237" />
    <path
       style="fill:none;fill-opacity:0.75;fill-rule:evenodd;stroke:#000000;stroke-width:0.23169813px;stroke-linecap:butt;stroke-linejoin:miter;marker-end:url(#Arrow2Lend);stroke-opacity:1"
       d="M 9.3577846,17.470261 C 9.1869186,17.505324 7.3044916,21.347688 7.3044916,21.347688"
       id="path5239" />
    <path
       style="fill:none;fill-opacity:0.75;fill-rule:evenodd;stroke:#000000;stroke-width:0.21507274px;stroke-linecap:butt;stroke-linejoin:miter;marker-end:url(#Arrow2Lend);stroke-opacity:1"
       d="M 12.827813,17.461948 C 12.76132,17.60815 14.671312,21.060805 14.671312,21.060805"
       id="path5241" />
    <path
       style="fill:none;fill-opacity:0.75;fill-rule:evenodd;stroke:#000000;stroke-width:0.19168536px;stroke-linecap:butt;stroke-linejoin:miter;marker-end:url(#Arrow2Lend);stroke-opacity:1"
       d="M 28.128169,18.095843 C 27.989957,18.168671 27.982037,21.097164 27.982037,21.097164"
       id="path5243" />
    <path
       style="fill:none;fill-opacity:0.75;fill-rule:evenodd;stroke:#000000;stroke-width:0.26533318px;stroke-linecap:butt;stroke-linejoin:miter;marker-end:url(#Arrow2Lend);stroke-opacity:1"
       d="M 21.52919,6.1488045 C 21.500262,6.3698745 24.47697,10.392294 24.47697,10.392294"
       id="path5245" />
    <path
       sodipodi:type="arc"
       style="fill:#ff0000;fill-opacity:1"
       id="path2202"
       sodipodi:cx="9.4133587"
       sodipodi:cy="13.836195"
       sodipodi:rx="10.562407"
       sodipodi:ry="8.4410868"
       d="M 19.975765 13.836195 A 10.562407 8.4410868 0 1 1  -1.1490479,13.836195 A 10.562407 8.4410868 0 1 1  19.975765 13.836195 z"
       transform="matrix(0.337272,0,0,0.414639,7.762736,9.11739)" />
    <path
       sodipodi:type="arc"
       style="fill:#0000ff;fill-opacity:1"
       id="path2229"
       sodipodi:cx="9.4133587"
       sodipodi:cy="13.836195"
       sodipodi:rx="10.562407"
       sodipodi:ry="8.4410868"
       d="M 19.975765 13.836195 A 10.562407 8.4410868 0 1 1  -1.1490479,13.836195 A 10.562407 8.4410868 0 1 1  19.975765 13.836195 z"
       transform="matrix(0.337272,0,0,0.414639,1.887546,20.11739)" />
    <path
       sodipodi:type="arc"
       style="fill:#00ff00;fill-opacity:1"
       id="path2231"
       sodipodi:cx="9.4133587"
       sodipodi:cy="13.836195"
       sodipodi:rx="10.562407"
       sodipodi:ry="8.4410868"
       d="M 19.975765 13.836195 A 10.562407 8.4410868 0 1 1  -1.1490479,13.836195 A 10.562407 8.4410868 0 1 1  19.975765 13.836195 z"
       transform="matrix(0.337272,0,0,0.414639,16.26273,-2.237022)" />
    <path
       sodipodi:type="arc"
       style="fill:#ff0000;fill-opacity:1"
       id="path5227"
       sodipodi:cx="9.4133587"
       sodipodi:cy="13.836195"
       sodipodi:rx="10.562407"
       sodipodi:ry="8.4410868"
       d="M 19.975765 13.836195 A 10.562407 8.4410868 0 1 1  -1.1490479,13.836195 A 10.562407 8.4410868 0 1 1  19.975765 13.836195 z"
       transform="matrix(0.337272,0,0,0.414639,24.76273,9.11739)" />
    <path
       sodipodi:type="arc"
       style="fill:#0000ff;fill-opacity:1"
       id="path5229"
       sodipodi:cx="9.4133587"
       sodipodi:cy="13.836195"
       sodipodi:rx="10.562407"
       sodipodi:ry="8.4410868"
       d="M 19.975765 13.836195 A 10.562407 8.4410868 0 1 1  -1.1490479,13.836195 A 10.562407 8.4410868 0 1 1  19.975765 13.836195 z"
       transform="matrix(0.337272,0,0,0.414639,13.32513,20.11738)" />
    <path
       sodipodi:type="arc"
       style="fill:#0000ff;fill-opacity:1"
       id="path5231"
       sodipodi:cx="9.4133587"
       sodipodi:cy="13.836195"
       sodipodi:rx="10.562407"
       sodipodi:ry="8.4410868"
       d="M 19.975765 13.836195 A 10.562407 8.4410868 0 1 1  -1.1490479,13.836195 A 10.562407 8.4410868 0 1 1  19.975765 13.836195 z"
       transform="matrix(0.337272,0,0,0.414639,24.76273,20.11738)" />
    <rect
       style="fill:none;fill-opacity:1;stroke:#000000;stroke-width:1.04978335;stroke-miterlimit:4;stroke-dasharray:2.09956652, 1.04978325;stroke-dashoffset:0;stroke-opacity:1"
       id="rect2341"
       width="19.811886"
       height="22.771906"
       x="0.800955"
       y="8.5250387" />
  </g>
</svg>
